<svg version="1.2" xmlns="http://www.w3.org/2000/svg" viewBox="0 0 53 48" width="53" height="48">
	<title>Photo</title>
	<style>
		.s0 { fill: #231f20 } 
	</style>
	<g id="Photo">
		<path id="&lt;Compound Path&gt;" fill-rule="evenodd" class="s0" d="m5.8 47.4c-0.7 0-2.6-0.1-4-1.5q-1.7-1.6-1.7-4.5c0-5.1-0.1-14.5-0.1-14.6v-13.5q0-0.1 0-0.2c0.3-2.1 2-6.2 6.2-6.2h7.8l4.9-6.2c0.2-0.3 0.5-0.4 0.8-0.4h13.6c0.3 0 0.6 0.1 0.9 0.4l4.3 6.1h8.4q0.1 0 0.2 0c2 0.4 5.7 2.1 5.7 6v27.9c0 2.3-1.4 6.7-6.5 6.7h-40.2q-0.1 0-0.3 0zm-3.6-20.6c0 0.3 0.2 9.5 0.2 14.6q0 1.9 0.9 2.8c1.1 1 2.7 0.9 2.7 0.9q0 0 0.1 0h40.2c4.1 0 4.2-3.9 4.2-4.4v-27.9c0-2.7-3.1-3.6-3.7-3.7h-8.9c-0.3 0-0.7-0.2-0.9-0.5l-4.3-6h-12.4l-4.9 6.2c-0.2 0.3-0.5 0.4-0.9 0.4h-8.3c-3.1 0-3.9 3.6-4 4.2z"/>
		<path id="&lt;Compound Path&gt;" fill-rule="evenodd" class="s0" d="m26.8 41.3c-7.8 0-14.1-6.5-14.1-14.5 0-8 6.3-14.5 14.1-14.5 7.7 0 14.1 6.5 14.1 14.5 0 8-6.4 14.5-14.1 14.5zm0-26.7c-6.6 0-11.9 5.5-11.9 12.2 0 6.7 5.3 12.2 11.9 12.2 6.5 0 11.8-5.5 11.8-12.2 0-6.7-5.3-12.2-11.8-12.2z"/>
		<path id="&lt;Path&gt;" class="s0" d="m27.3 33.7q0 0 0 0c-6.2-0.4-8-5.7-8.1-8.5-0.1-0.6 0.4-1.1 1-1.2 0.6 0 1.2 0.5 1.2 1.1 0 0.3 0.4 6 6 6.3 0.6 0.1 1.1 0.6 1.1 1.3-0.1 0.6-0.6 1-1.2 1z"/>
		<path id="&lt;Path&gt;" class="s0" d="m9 9.2c-0.6 0-1.1-0.5-1.1-1.1v-3.2c0-0.6 0.5-1.2 1.1-1.2 0.6 0 1.1 0.6 1.1 1.2v3.2c0 0.6-0.5 1.1-1.1 1.1z"/>
	</g>
</svg>