<svg version="1.2" xmlns="http://www.w3.org/2000/svg" viewBox="0 0 57 52" width="57" height="52">
	<title>Sound</title>
	<style>
		.s0 { fill: #231f20 } 
	</style>
	<g id="Sound">
		<path id="&lt;Compound Path&gt;" fill-rule="evenodd" class="s0" d="m30.6 51.2q-0.5 0-0.8-0.3l-17-15.4c-0.3-0.2-0.4-0.5-0.4-0.9l-0.3-19.2c0-0.4 0.2-0.7 0.4-1l17.3-14.2c0.4-0.3 0.9-0.4 1.3-0.2 0.4 0.2 0.6 0.7 0.6 1.2v48.8c0 0.5-0.2 0.9-0.6 1.1q-0.3 0.1-0.5 0.1zm-15.9-17.2l14.7 13.3v-43.6l-14.9 12.3z"/>
		<path id="&lt;Compound Path&gt;" fill-rule="evenodd" class="s0" d="m13 35.4h-6.9q-0.2 0-0.4 0c-0.2-0.1-4.6-1.9-5.2-9.9-0.6-8 4.6-10.7 4.8-10.8q0.2-0.2 0.5-0.2h7.1c0.7 0 1.2 0.6 1.2 1.3l0.1 18.4c0 0.3-0.1 0.6-0.3 0.9-0.2 0.2-0.5 0.3-0.9 0.3zm-6.7-2.5h5.6l-0.1-15.9h-5.7c-0.8 0.6-3.7 2.8-3.2 8.3 0.4 5.5 2.8 7.3 3.4 7.6z"/>
		<path id="&lt;Path&gt;" class="s0" d="m40 36.8c-0.3 0-0.6-0.2-0.8-0.4-0.5-0.5-0.5-1.3 0-1.8 3.1-3.3 4.6-6.8 4.5-10.2-0.3-5.3-4.4-9-4.5-9-0.5-0.4-0.5-1.2-0.1-1.8 0.4-0.5 1.1-0.6 1.6-0.1 0.2 0.1 5 4.3 5.3 10.8 0.2 4.1-1.5 8.2-5.2 12.1-0.2 0.2-0.5 0.4-0.8 0.4z"/>
		<path id="&lt;Path&gt;" class="s0" d="m46.4 44.6c-0.3 0-0.6-0.1-0.9-0.4-0.4-0.4-0.4-1.2 0-1.7 6.4-6.8 9.4-13.5 8.9-20.1-0.8-9.2-8.6-15-8.7-15-0.5-0.4-0.7-1.2-0.3-1.8 0.4-0.5 1.1-0.7 1.6-0.3 0.4 0.3 8.8 6.5 9.7 16.9 0.6 7.3-2.6 14.7-9.5 22-0.2 0.3-0.5 0.4-0.8 0.4z"/>
	</g>
</svg>