<svg version="1.2" xmlns="http://www.w3.org/2000/svg" viewBox="0 0 56 57" width="56" height="57">
	<title>Video</title>
	<style>
		.s0 { fill: #231f20 } 
	</style>
	<g id="Video">
		<path id="&lt;Compound Path&gt;" fill-rule="evenodd" class="s0" d="m28 56.4c-15.4 0-28-12.5-28-28 0-15.4 12.6-28 28-28 15.4 0 28 12.6 28 28 0 15.5-12.6 28-28 28zm0-53.6c-14.1 0-25.6 11.5-25.6 25.6 0 14.2 11.5 25.7 25.6 25.7 14.1 0 25.6-11.5 25.6-25.7 0-14.1-11.5-25.6-25.6-25.6z"/>
		<path id="&lt;Compound Path&gt;" fill-rule="evenodd" class="s0" d="m22.5 43q-0.3 0-0.5-0.1c-0.4-0.2-0.7-0.6-0.7-1.1l-0.3-26.8c0-0.4 0.3-0.8 0.7-1.1 0.4-0.2 0.9-0.1 1.2 0.2l17.1 13.2c0.2 0.2 0.4 0.6 0.4 0.9 0 0.4-0.1 0.8-0.4 1l-16.7 13.5q-0.4 0.3-0.8 0.3zm0.9-25.5l0.3 21.9 13.6-11.1z"/>
	</g>
</svg>