<svg width="40" height="30" viewBox="0 0 40 30" fill="none" xmlns="http://www.w3.org/2000/svg">
<path opacity="1" d="M3.908 29.426C2.87153 29.426 1.87752 29.0143 1.14463 28.2814C0.411735 27.5485 0 26.5545 0 25.518C0 24.4815 0.411735 23.4875 1.14463 22.7546C1.87752 22.0217 2.87153 21.61 3.908 21.61H36.092C37.1285 21.61 38.1225 22.0217 38.8554 22.7546C39.5883 23.4875 40 24.4815 40 25.518C40 26.5545 39.5883 27.5485 38.8554 28.2814C38.1225 29.0143 37.1285 29.426 36.092 29.426H3.908ZM3.908 27.817H36.092C36.702 27.817 37.287 27.5747 37.7183 27.1434C38.1497 26.712 38.392 26.127 38.392 25.517C38.392 24.907 38.1497 24.322 37.7183 23.8907C37.287 23.4593 36.702 23.217 36.092 23.217H3.908C3.298 23.217 2.71299 23.4593 2.28165 23.8907C1.85032 24.322 1.608 24.907 1.608 25.517C1.608 26.127 1.85032 26.712 2.28165 27.1434C2.71299 27.5747 3.298 27.817 3.908 27.817ZM20.69 17.017C20.4617 17.0239 20.2344 16.9841 20.0221 16.8999C19.8099 16.8157 19.617 16.689 19.4555 16.5275C19.294 16.366 19.1673 16.1732 19.0831 15.9609C18.9989 15.7486 18.9591 15.5213 18.966 15.293V1.72501C18.9586 1.49662 18.9982 1.26914 19.0822 1.05665C19.1663 0.84415 19.293 0.651147 19.4546 0.489566C19.6161 0.327986 19.8091 0.201263 20.0216 0.117231C20.2341 0.0331986 20.4616 -0.00635681 20.69 0.0010097H34.253C34.4815 -0.00694815 34.7093 0.0322018 34.922 0.116025C35.1348 0.199848 35.3281 0.326551 35.4898 0.488253C35.6515 0.649956 35.7782 0.843199 35.862 1.05596C35.9458 1.26873 35.985 1.49647 35.977 1.72501V15.288C35.9844 15.5164 35.9448 15.7439 35.8608 15.9564C35.7767 16.1689 35.65 16.3619 35.4884 16.5235C35.3269 16.685 35.1339 16.8118 34.9214 16.8958C34.7089 16.9798 34.4814 17.0194 34.253 17.012L20.69 17.017ZM20.575 15.401H34.368V1.61001H20.575V15.401ZM0 13.909V12.301H14.368V13.91L0 13.909ZM22.874 7.00901H32.074V5.40101H22.874V7.00901ZM4.598 7.00901H14.368V5.40101H4.6L4.598 7.00901Z" fill="white"/>
</svg>
