<svg width="42" height="39" viewBox="0 0 42 39" fill="none" xmlns="http://www.w3.org/2000/svg">
<path opacity="1" d="M3.50008 38.6573V35.6573H11.0101L4.50008 14.3833C3.46542 13.9242 2.57775 13.1881 1.93508 12.2563C1.29737 11.2934 0.970969 10.1578 1.00008 9.0033C0.987643 8.22888 1.13402 7.46013 1.43019 6.74448C1.72636 6.02883 2.16603 5.38145 2.72208 4.8423C3.26111 4.28685 3.90825 3.84775 4.62356 3.5521C5.33888 3.25644 6.10718 3.11051 6.88108 3.1233C8.28703 3.08644 9.65367 3.58959 10.7001 4.5293C11.7503 5.48177 12.4727 6.74175 12.7641 8.1293H22.2701V3.9983C22.2701 3.88326 22.2927 3.76935 22.3368 3.66307C22.3808 3.55679 22.4453 3.46022 22.5267 3.37887C22.608 3.29753 22.7046 3.233 22.8109 3.18898C22.9171 3.14496 23.031 3.1223 23.1461 3.1223C23.2611 3.1223 23.375 3.14496 23.4813 3.18898C23.5876 3.233 23.6842 3.29753 23.7655 3.37887C23.8469 3.46022 23.9114 3.55679 23.9554 3.66307C23.9994 3.76935 24.0221 3.88326 24.0221 3.9983V4.8743L28.6511 0.6203C28.9433 0.306726 29.3292 0.0962244 29.7511 0.0202995C30.1502 -0.0407614 30.5583 0.03689 30.9071 0.240299L40.2911 4.6193C40.5361 4.73772 40.7437 4.92147 40.8911 5.1503C40.962 5.25604 41.0024 5.37934 41.0077 5.50657C41.013 5.6338 40.983 5.76003 40.9211 5.8713C40.8721 5.98358 40.7993 6.08382 40.7075 6.165C40.6158 6.24619 40.5075 6.30635 40.3901 6.3413C40.1457 6.39973 39.8883 6.36403 39.6691 6.2413L30.0281 1.7503L24.0221 7.2503V10.7503L30.0281 16.1303L39.6621 11.6303C39.8813 11.5076 40.1387 11.4719 40.3831 11.5303C40.5005 11.5652 40.6088 11.6254 40.7005 11.7066C40.7923 11.7878 40.8651 11.888 40.9141 12.0003C40.976 12.111 41.0059 12.2368 41.0006 12.3635C40.9953 12.4903 40.955 12.6131 40.8841 12.7183C40.7373 12.9481 40.5296 13.1326 40.2841 13.2513L30.9001 17.6373C30.5516 17.8417 30.1394 17.9087 29.7441 17.8253C29.3346 17.7369 28.9553 17.5428 28.6441 17.2623L24.0151 13.1333V14.0093C24.0151 14.1243 23.9924 14.2382 23.9484 14.3445C23.9044 14.4508 23.8399 14.5474 23.7585 14.6287C23.6772 14.7101 23.5806 14.7746 23.4743 14.8186C23.368 14.8626 23.2541 14.8853 23.1391 14.8853C23.024 14.8853 22.9101 14.8626 22.8039 14.8186C22.6976 14.7746 22.601 14.7101 22.5197 14.6287C22.4383 14.5474 22.3738 14.4508 22.3298 14.3445C22.2857 14.2382 22.2631 14.1243 22.2631 14.0093V9.8793H12.7611C12.625 10.5353 12.3932 11.1677 12.0731 11.7563C11.7935 12.3055 11.435 12.8109 11.0091 13.2563L23.0211 35.6503H32.7801V38.6503L3.50008 38.6573ZM6.88108 13.1323C7.4238 13.1383 7.962 13.033 8.46248 12.823C8.96296 12.613 9.41512 12.3028 9.79108 11.9113C10.1771 11.5315 10.4836 11.0787 10.6929 10.5793C10.9021 10.0799 11.0099 9.54379 11.0099 9.0023C11.0099 8.46081 10.9021 7.92473 10.6929 7.4253C10.4836 6.92587 10.1771 6.47308 9.79108 6.0933C9.41131 5.70732 8.95851 5.40077 8.45908 5.19152C7.95965 4.98228 7.42357 4.87452 6.88208 4.87452C6.34059 4.87452 5.80451 4.98228 5.30508 5.19152C4.80565 5.40077 4.35286 5.70732 3.97308 6.0933C3.58636 6.47266 3.27917 6.92532 3.06946 7.4248C2.85975 7.92429 2.75174 8.46058 2.75174 9.0023C2.75174 9.54402 2.85975 10.0803 3.06946 10.5798C3.27917 11.0793 3.58636 11.5319 3.97308 11.9113C4.34848 12.3029 4.80026 12.6134 5.30045 12.8234C5.80065 13.0334 6.33862 13.1385 6.88108 13.1323ZM12.8861 35.6503H21.0191L9.50808 14.2503C9.07927 14.4966 8.61521 14.6757 8.13208 14.7813C7.60251 14.9269 7.04849 14.9609 6.50508 14.8813L12.8861 35.6503Z" fill="white"/>
</svg>
