<svg width="41" height="31" viewBox="0 0 41 31" fill="none" xmlns="http://www.w3.org/2000/svg">
<path opacity="1" d="M3.44974 30.8019C2.9933 30.8166 2.5387 30.7376 2.11398 30.5698C1.68927 30.4019 1.30345 30.1489 0.980348 29.8261C0.657246 29.5034 0.403714 29.1179 0.2354 28.6934C0.0670862 28.2688 -0.0124375 27.8143 0.00173714 27.3579V3.44987C-0.0129959 2.99309 0.0661148 2.53814 0.234179 2.11314C0.402243 1.68815 0.655688 1.30214 0.978849 0.978981C1.30201 0.65582 1.68802 0.402374 2.11301 0.23431C2.53801 0.0662461 2.99296 -0.0128643 3.44974 0.0018687H36.5497C37.0068 -0.0134236 37.4622 0.0652732 37.8877 0.233087C38.3132 0.400901 38.6997 0.65426 39.0233 0.977479C39.3469 1.3007 39.6007 1.6869 39.769 2.11217C39.9373 2.53745 40.0165 2.99274 40.0017 3.44987V27.3579C40.0159 27.8143 39.9364 28.2688 39.7681 28.6934C39.5998 29.1179 39.3462 29.5034 39.0231 29.8261C38.7 30.1489 38.3142 30.4019 37.8895 30.5698C37.4648 30.7376 37.0102 30.8166 36.5537 30.8019H3.44974ZM3.44974 29.1929H36.5497C37.0268 29.1604 37.4759 28.9562 37.814 28.6181C38.1521 28.28 38.3562 27.8309 38.3887 27.3539V3.44987C38.3837 3.21118 38.3302 2.976 38.2313 2.75869C38.1325 2.54137 37.9904 2.34647 37.8137 2.18587C37.6531 2.00922 37.4582 1.86713 37.2409 1.76828C37.0236 1.66942 36.7884 1.61586 36.5497 1.61087H3.44974C3.21105 1.61586 2.97587 1.66942 2.75856 1.76828C2.54124 1.86713 2.34634 2.00922 2.18574 2.18587C2.00909 2.34647 1.867 2.54137 1.76815 2.75869C1.66929 2.976 1.61573 3.21118 1.61074 3.44987V27.3579C1.61573 27.5966 1.66929 27.8317 1.76815 28.049C1.867 28.2664 2.00909 28.4613 2.18574 28.6219C2.3459 28.7994 2.54061 28.9424 2.75795 29.0422C2.97528 29.1419 3.21068 29.1962 3.44974 29.2019V29.1929ZM10.6907 24.5929H29.7717L23.9097 16.7769L18.1627 23.9029L14.4847 19.6499L10.6907 24.5929Z" fill="white"/>
</svg>
