<svg width="41" height="42" viewBox="0 0 41 42" fill="none" xmlns="http://www.w3.org/2000/svg">
<path d="M3.97607 41V21.645" stroke="white" stroke-width="1.5" stroke-linecap="square" stroke-linejoin="round"/>
<path d="M37.5239 26.806V37.774" stroke="white" stroke-width="1.5" stroke-linecap="round" stroke-linejoin="round"/>
<path d="M39.4601 41V39.064C39.4601 38.7219 39.3242 38.3937 39.0823 38.1518C38.8404 37.9099 38.5122 37.774 38.1701 37.774H36.8791C36.537 37.774 36.2089 37.9099 35.9669 38.1518C35.725 38.3937 35.5891 38.7219 35.5891 39.064V40.999" stroke="white" stroke-width="1.5" stroke-linecap="square" stroke-linejoin="round"/>
<path d="M31.7211 40.999V37.774H29.7821L24.6211 24.225V23.58" stroke="white" stroke-width="1.5" stroke-linecap="square" stroke-linejoin="round"/>
<path d="M13.926 40.999L20.103 27.451H20.748L25.986 40.999" stroke="white" stroke-width="1.5" stroke-linecap="round" stroke-linejoin="round"/>
<path d="M16.2339 20.355V24.226L9.78194 37.774H8.49194V41" stroke="white" stroke-width="1.5" stroke-linecap="square" stroke-linejoin="round"/>
<path d="M14.944 8.1L15.589 2.939L12.363 1C7.089 3.081 2.197 8.326 0.75 20.355L3.976 21.645L14.944 8.1Z" stroke="white" stroke-width="1.5" stroke-linecap="round" stroke-linejoin="round"/>
<path d="M16.8789 10.032L38.8139 23.58L37.5239 26.806L22.6849 19.706" stroke="white" stroke-width="1.5" stroke-linecap="square" stroke-linejoin="round"/>
<path d="M18.169 17.774L11.072 14.356" stroke="white" stroke-width="1.5" stroke-linecap="square" stroke-linejoin="round"/>
<path d="M20.749 20.999C21.8176 20.999 22.684 20.1327 22.684 19.064C22.684 17.9953 21.8176 17.129 20.749 17.129C19.6803 17.129 18.814 17.9953 18.814 19.064C18.814 20.1327 19.6803 20.999 20.749 20.999Z" stroke="white" stroke-width="1.5" stroke-linecap="round" stroke-linejoin="round"/>
</svg>
