<svg width="40" height="41" viewBox="0 0 40 41" fill="none" xmlns="http://www.w3.org/2000/svg">
<path opacity="1" d="M38.444 26.722V10.778L25.889 2L13.333 10.778V17.556H11.778V10.056L25.889 0L40 10.056V26.722H38.444ZM27.278 12.389H28.945V10.722H27.278V12.389ZM22.834 12.389H24.5V10.722H22.833L22.834 12.389ZM27.278 16.833H28.945V15.167H27.278V16.833ZM22.834 16.833H24.5V15.167H22.833L22.834 16.833ZM24.89 40.777L7.556 35.667V38.445H0V22.222H13.111L26.444 27.111C27.1577 27.407 27.7738 27.8977 28.222 28.527C28.7818 29.3522 29.0551 30.3384 29 31.334H36.333C36.8423 31.2977 37.3521 31.3968 37.8107 31.6212C38.2693 31.8457 38.6603 32.1875 38.944 32.612C39.5446 33.6369 39.834 34.8144 39.777 36.001V36.112L24.89 40.777ZM1.556 36.889H6V23.778H1.556V36.889ZM24.778 39.111L38.111 35C38.137 34.4516 37.9704 33.9114 37.64 33.473C37.483 33.2802 37.283 33.1269 37.056 33.0255C36.829 32.924 36.5814 32.8773 36.333 32.889H26C25.0156 32.889 24.0323 32.8259 23.056 32.7C22.168 32.5952 21.2931 32.3995 20.445 32.116L16 30.667L16.667 29.111L20.778 30.555C21.6196 30.8663 22.4967 31.0716 23.389 31.166C24.737 31.2945 26.091 31.3503 27.445 31.333C27.4772 30.6985 27.3431 30.0667 27.056 29.5C26.7946 29.054 26.3798 28.7184 25.889 28.556L12.889 23.778H7.556V34L24.778 39.111Z" fill="white"/>
</svg>
