<svg width="41" height="40" viewBox="0 0 41 40" fill="none" xmlns="http://www.w3.org/2000/svg">
<path opacity="1" d="M3.069 18.1461L9.569 20.8951C10.3995 19.2336 11.3171 17.617 12.318 16.0521C13.3282 14.4766 14.4339 12.9645 15.629 11.5241L11.693 10.7741C11.3746 10.6903 11.0386 10.7007 10.726 10.8041C10.4065 10.9128 10.1171 11.095 9.881 11.3361L3.069 18.1461ZM10.941 22.0201L18.001 29.0801C20.1131 28.0807 22.1398 26.9101 24.061 25.5801C26.1425 24.1367 28.0873 22.5056 29.871 20.7071C32.328 18.3163 34.3478 15.5141 35.839 12.4271C37.3145 9.01688 38.151 5.36462 38.307 1.65213C34.6035 1.80499 30.9603 2.64139 27.561 4.11913C24.4877 5.61679 21.6974 7.63604 19.314 10.0871C17.5098 11.8774 15.8782 13.8337 14.441 15.9301C13.1149 17.8642 11.9445 19.9006 10.941 22.0201ZM24.441 15.5201C24.1246 15.211 23.8732 14.8417 23.7015 14.4341C23.5299 14.0264 23.4415 13.5885 23.4415 13.1461C23.4415 12.7038 23.5299 12.2659 23.7015 11.8582C23.8732 11.4505 24.1246 11.0813 24.441 10.7721C24.7564 10.4553 25.1312 10.2039 25.544 10.0323C25.9568 9.86077 26.3995 9.77246 26.8465 9.77246C27.2935 9.77246 27.7362 9.86077 28.149 10.0323C28.5618 10.2039 28.9366 10.4553 29.252 10.7721C29.5684 11.0813 29.8198 11.4505 29.9915 11.8582C30.1631 12.2659 30.2515 12.7038 30.2515 13.1461C30.2515 13.5885 30.1631 14.0264 29.9915 14.4341C29.8198 14.8417 29.5684 15.211 29.252 15.5201C28.9366 15.837 28.5618 16.0884 28.149 16.2599C27.7362 16.4315 27.2935 16.5198 26.8465 16.5198C26.3995 16.5198 25.9568 16.4315 25.544 16.2599C25.1312 16.0884 24.7564 15.837 24.441 15.5201ZM21.813 36.9521L28.623 30.1421C28.8636 29.9068 29.0458 29.6185 29.155 29.3001C29.2584 28.9865 29.2688 28.6496 29.185 28.3301L28.435 24.3941C26.9947 25.5892 25.4825 26.6949 23.907 27.7051C22.3421 28.706 20.7256 29.6236 19.064 30.4541L21.813 36.9521ZM39.994 0.0281315C40.1778 4.15152 39.464 8.26563 37.902 12.0861C36.2846 15.8087 33.9607 19.1823 31.059 22.0201L30.497 22.5821L29.935 23.1441L30.872 27.9551C30.9978 28.5553 30.9766 29.177 30.81 29.7671C30.6377 30.3599 30.3149 30.898 29.873 31.3291L21.183 39.9511L17.372 30.9511L9 22.5791L0 18.7051L8.622 10.0831C9.05721 9.63904 9.59299 9.30632 10.184 9.11313C10.7699 8.92648 11.3942 8.89479 11.996 9.02113L16.932 10.0211C17.14 9.81313 17.3167 9.6258 17.462 9.45913C17.6073 9.29247 17.7847 9.10513 17.994 8.89713C20.8301 5.99979 24.2082 3.68829 27.936 2.09413C31.7612 0.550463 35.8731 -0.154075 39.994 0.0281315ZM4.132 29.7671C4.52381 29.3633 4.99608 29.0463 5.51823 28.8367C6.04037 28.627 6.60072 28.5294 7.163 28.5501C7.72775 28.5506 8.2867 28.6641 8.80691 28.8839C9.32712 29.1037 9.79806 29.4255 10.192 29.8301C10.992 30.6357 11.4409 31.7249 11.4409 32.8601C11.4409 33.9954 10.992 35.0846 10.192 35.8901C9.11281 36.8427 7.83065 37.5366 6.443 37.9191C4.68213 38.4924 2.85545 38.8392 1.007 38.9511C1.11909 37.1001 1.4762 35.2722 2.069 33.5151C2.47064 32.1284 3.17528 30.8483 4.132 29.7671ZM5.383 31.0791C4.7692 31.7696 4.30148 32.5771 4.008 33.4531C3.5912 34.5375 3.31822 35.6718 3.196 36.8271C4.35455 36.7041 5.49021 36.4197 6.57 35.9821C7.44444 35.6734 8.25068 35.198 8.944 34.5821C9.18133 34.3503 9.36992 34.0734 9.49868 33.7676C9.62744 33.4618 9.69376 33.1334 9.69376 32.8016C9.69376 32.4699 9.62744 32.1414 9.49868 31.8357C9.36992 31.5299 9.18133 31.253 8.944 31.0211C8.71573 30.7817 8.4389 30.5938 8.13207 30.4702C7.82524 30.3465 7.49551 30.2899 7.165 30.3041C6.49115 30.3179 5.85028 30.5984 5.383 31.0841V31.0791Z" fill="white"/>
</svg>
