<svg width="41" height="28" viewBox="0 0 41 28" fill="none" xmlns="http://www.w3.org/2000/svg">
<path opacity="1" d="M26.1869 27.6314C24.3663 27.6658 22.558 27.3267 20.8735 26.6351C19.1891 25.9435 17.6642 24.9141 16.3929 23.6104C15.0892 22.3392 14.0598 20.8143 13.3682 19.1298C12.6766 17.4453 12.3376 15.637 12.3719 13.8164C12.3376 11.9958 12.6766 10.1875 13.3682 8.503C14.0598 6.81852 15.0892 5.29362 16.3929 4.02239C17.6642 2.71884 19.1892 1.68962 20.8737 0.998214C22.5581 0.306813 24.3664 -0.0320977 26.1869 0.00239123C28.0075 -0.0319682 29.8158 0.3071 31.5003 0.998675C33.1848 1.69025 34.7097 2.71966 35.9809 4.02339C37.2844 5.29459 38.3135 6.81937 39.0049 8.50366C39.6963 10.1879 40.0353 11.996 40.0009 13.8164C40.0353 15.637 39.6962 17.4453 39.0046 19.1298C38.3131 20.8143 37.2837 22.3392 35.9799 23.6104C34.7088 24.914 33.1841 25.9433 31.4998 26.6349C29.8155 27.3265 28.0074 27.6656 26.1869 27.6314ZM9.69193 27.0124C6.83072 26.2871 4.32482 24.559 2.62993 22.1424C0.887939 19.7185 -0.033261 16.8011 0.000929196 13.8164C-0.033465 10.8323 0.887775 7.91542 2.62993 5.49239C4.32429 3.07485 6.8303 1.34598 9.69193 0.620391V2.16739C7.27393 3.00631 5.17878 4.58036 3.69981 6.66918C2.22083 8.758 1.43207 11.257 1.44393 13.8164C1.432 16.3756 2.22062 18.8746 3.6994 20.9634C5.17819 23.0522 7.27311 24.6263 9.69093 25.4654L9.69193 27.0124ZM26.1869 26.1874C27.8166 26.2165 29.4349 25.9114 30.9421 25.2908C32.4492 24.6703 33.8132 23.7475 34.9499 22.5794C36.118 21.4427 37.0408 20.0787 37.6614 18.5715C38.2819 17.0644 38.587 15.446 38.5579 13.8164C38.587 12.1867 38.2819 10.5684 37.6614 9.06127C37.0408 7.55411 36.118 6.1901 34.9499 5.05339C33.8132 3.88528 32.4492 2.96249 30.9421 2.34195C29.4349 1.72141 27.8166 1.41628 26.1869 1.44539C24.5573 1.41628 22.939 1.72141 21.4318 2.34195C19.9247 2.96249 18.5606 3.88528 17.4239 5.05339C16.2558 6.1901 15.333 7.55411 14.7125 9.06127C14.0919 10.5684 13.7868 12.1867 13.8159 13.8164C13.7868 15.446 14.0919 17.0644 14.7125 18.5715C15.333 20.0787 16.2558 21.4427 17.4239 22.5794C18.5606 23.7475 19.9247 24.6703 21.4318 25.2908C22.939 25.9114 24.5573 26.2165 26.1869 26.1874Z" fill="white"/>
</svg>
